<svg width="36" height="37" viewBox="0 0 36 37" fill="none" xmlns="http://www.w3.org/2000/svg">
<path d="M31.4999 25.4358V11.5642C31.4999 11.3646 31.4468 11.1686 31.346 10.9963C31.2452 10.8239 31.1004 10.6816 30.9264 10.5837L18.5514 3.62275C18.383 3.52803 18.1931 3.47827 17.9999 3.47827C17.8067 3.47827 17.6167 3.52803 17.4483 3.62275L5.07333 10.5837C4.89935 10.6816 4.75454 10.8239 4.65377 10.9963C4.55299 11.1686 4.49988 11.3646 4.49988 11.5642V25.4358C4.49988 25.6354 4.55299 25.8314 4.65377 26.0038C4.75454 26.1761 4.89935 26.3185 5.07333 26.4163L17.4483 33.3773C17.6167 33.472 17.8067 33.5217 17.9999 33.5217C18.1931 33.5217 18.383 33.472 18.5514 33.3773L30.9264 26.4163C31.1004 26.3185 31.2452 26.1761 31.346 26.0038C31.4468 25.8314 31.4999 25.6354 31.4999 25.4358Z" stroke="#8397AC" stroke-width="2.23976" stroke-linecap="round" stroke-linejoin="round"/>
<path d="M24.8937 21.9469V14.6344L11.25 7.10938" stroke="#8397AC" stroke-width="2.23976" stroke-linecap="round" stroke-linejoin="round"/>
<path d="M31.3448 10.9944L18.1334 18.5L4.65576 10.993" stroke="#8397AC" stroke-width="2.23976" stroke-linecap="round" stroke-linejoin="round"/>
<path d="M18.1336 18.5L18.0016 33.5217" stroke="#8397AC" stroke-width="2.23976" stroke-linecap="round" stroke-linejoin="round"/>
</svg>
