<svg width="18" height="18" viewBox="0 0 18 18" fill="none" xmlns="http://www.w3.org/2000/svg">
<path d="M9 7.3125V10.125" stroke="#BA253C" stroke-width="1.5" stroke-linecap="round" stroke-linejoin="round"/>
<path d="M8.02638 2.81143L1.84055 13.4984C1.74157 13.6694 1.68937 13.8634 1.68921 14.061C1.68905 14.2586 1.74092 14.4528 1.83962 14.6239C1.93832 14.7951 2.08036 14.9372 2.25144 15.0361C2.42253 15.1349 2.61663 15.187 2.81421 15.187H15.1859C15.3835 15.187 15.5776 15.1349 15.7486 15.0361C15.9197 14.9372 16.0618 14.7951 16.1605 14.6239C16.2592 14.4528 16.311 14.2586 16.3109 14.061C16.3107 13.8634 16.2585 13.6694 16.1595 13.4984L9.9737 2.81143C9.87487 2.64069 9.7329 2.49895 9.562 2.40041C9.39111 2.30187 9.19731 2.25 9.00004 2.25C8.80277 2.25 8.60897 2.30187 8.43808 2.40041C8.26718 2.49895 8.12521 2.64069 8.02638 2.81143V2.81143Z" stroke="#BA253C" stroke-width="1.5" stroke-linecap="round" stroke-linejoin="round"/>
<path d="M9 13.3594C9.38833 13.3594 9.70312 13.0446 9.70312 12.6562C9.70312 12.2679 9.38833 11.9531 9 11.9531C8.61167 11.9531 8.29688 12.2679 8.29688 12.6562C8.29688 13.0446 8.61167 13.3594 9 13.3594Z" fill="#BA253C"/>
</svg>
