<svg width="18" height="18" viewBox="0 0 18 18" fill="none" xmlns="http://www.w3.org/2000/svg">
<path d="M6.53345 11.6762C7.19769 11.0417 8.08091 10.6877 8.99948 10.6877C9.91805 10.6877 10.8013 11.0417 11.4655 11.6762" stroke="#7E848A" stroke-width="1.5" stroke-linecap="round" stroke-linejoin="round"/>
<path d="M15.75 3.9375L12.375 7.3125" stroke="#7E848A" stroke-width="1.5" stroke-linecap="round" stroke-linejoin="round"/>
<path d="M15.75 7.3125L12.375 3.9375" stroke="#7E848A" stroke-width="1.5" stroke-linecap="round" stroke-linejoin="round"/>
<path d="M1.76233 6.90325C3.68846 4.99785 6.29014 3.93177 8.99948 3.93771C9.37566 3.93764 9.75156 3.95786 10.1256 3.99829" stroke="#7E848A" stroke-width="1.5" stroke-linecap="round" stroke-linejoin="round"/>
<path d="M4.14697 9.28973C5.44152 8.01819 7.18492 7.30789 8.99949 7.31271C9.37702 7.31256 9.75394 7.34286 10.1266 7.40331" stroke="#7E848A" stroke-width="1.5" stroke-linecap="round" stroke-linejoin="round"/>
<path d="M9 14.7656C9.38833 14.7656 9.70312 14.4508 9.70312 14.0625C9.70312 13.6742 9.38833 13.3594 9 13.3594C8.61167 13.3594 8.29688 13.6742 8.29688 14.0625C8.29688 14.4508 8.61167 14.7656 9 14.7656Z" fill="#7E848A"/>
</svg>
